<?xml version="1.0" encoding="iso-8859-1"?>
<!-- Uploaded to: SVG Repo, www.svgrepo.com, Generator: SVG Repo Mixer Tools -->
<svg version="1.1" id="Layer_1" xmlns="http://www.w3.org/2000/svg" xmlns:xlink="http://www.w3.org/1999/xlink" 
	 viewBox="0 0 512 512" xml:space="preserve">
<path style="fill:#65513C;" d="M108.363,118.163l197.742-10.086V80.151L108.363,70.064c-10.142-0.518-18.648,7.567-18.648,17.722
	v12.655C89.714,110.597,98.221,118.68,108.363,118.163z"/>
<path style="opacity:0.2;enable-background:new    ;" d="M119.037,108.557c-10.142,0.518-18.648-7.567-18.648-17.722V78.181
	c0-2.584,0.556-5.031,1.543-7.238c-7.061,2.319-12.217,8.945-12.217,16.844v12.655c0,10.155,8.507,18.239,18.648,17.722
	l197.742-10.086v-9.062L119.037,108.557z"/>
<path style="fill:#C3C6C8;" d="M422.285,134.012c0-5.377-4.359-9.736-9.737-9.736h-55.431c-5.64,0-10.213-4.573-10.213-10.213
	s4.573-10.213,10.213-10.213h55.431c5.377,0,9.737-4.359,9.737-9.736c0-5.377-4.359-9.737-9.737-9.737h-55.431
	c-5.64,0-10.213-4.573-10.213-10.213l0,0c0-5.64,4.573-10.213,10.213-10.213h55.431c5.377,0,9.737-4.359,9.737-9.737
	s-4.359-9.737-9.737-9.737h-72.322c-27.411,0-49.634,22.222-49.634,49.634c0,27.411,22.222,49.634,49.634,49.634h72.322
	C417.926,143.747,422.285,139.388,422.285,134.012z"/>
<path style="opacity:0.1;enable-background:new    ;" d="M345.563,137.343c-27.411,0-49.634-22.222-49.634-49.633
	c0-9.017,2.426-18.545,6.629-25.898c-7.452,8.683-11.966,19.962-11.966,32.302c0,27.411,22.222,49.633,49.634,49.633h72.322
	c4.204,0,7.777-2.671,9.139-6.404H345.563z"/>
<path style="fill:#B07C57;" d="M489.254,181.734H22.746c-8.141,0-14.74,6.6-14.74,14.74v261.541c0,5.246,4.253,9.5,9.5,9.5h476.99
	c5.246,0,9.5-4.253,9.5-9.5v-261.54C503.995,188.334,497.395,181.734,489.254,181.734z"/>
<rect x="184.752" y="347.045" style="fill:#6DABE4;" width="142.495" height="120.475"/>
<rect x="247.994" y="347.034" style="opacity:0.1;enable-background:new    ;" width="16.011" height="120.475"/>
<rect x="184.752" y="347.045" style="opacity:0.2;enable-background:new    ;" width="142.495" height="16.94"/>
<path style="fill:#FF6361;" d="M503.995,220.825H8.005v-24.35c0-8.141,6.6-14.74,14.74-14.74h466.508c8.141,0,14.74,6.6,14.74,14.74
	V220.825z"/>
<rect x="8.005" y="220.828" style="fill:#FFB547;" width="495.988" height="39.091"/>
<path style="opacity:0.2;enable-background:new    ;" d="M40.86,448.878c-5.246,0-9.5-4.252-9.5-9.5V181.734h-8.615
	c-8.141,0-14.74,6.6-14.74,14.74v261.541c0,5.246,4.253,9.5,9.5,9.5h476.99c5.246,0,9.5-4.253,9.5-9.5v-9.139H40.86V448.878z"/>
<path style="fill:#77E0C1;" d="M151.037,467.517c0-31.183-25.279-56.463-56.462-56.463s-56.463,25.28-56.463,56.463H151.037z"/>
<g style="opacity:0.1;">
	<path d="M150.409,459.102H58.609c-3.495,0-6.201-3.053-5.802-6.524c1.737-15.092,9.428-28.367,20.66-37.431
		c-20.724,8.361-35.356,28.651-35.356,52.369h112.925C151.037,464.657,150.819,461.848,150.409,459.102z"/>
</g>
<path style="fill:#77E0C1;" d="M360.963,467.517c0-31.183,25.28-56.463,56.462-56.463c31.183,0,56.463,25.28,56.463,56.463H360.963z
	"/>
<g style="opacity:0.1;">
	<path d="M473.262,459.102h-91.801c-3.495,0-6.201-3.053-5.802-6.524c1.737-15.092,9.428-28.367,20.66-37.431
		c-20.724,8.361-35.356,28.651-35.356,52.369h112.925C473.888,464.657,473.672,461.848,473.262,459.102z"/>
</g>
<path style="fill:#FFFFFF;" d="M350.636,312.363H161.364c-5.114,0-9.259,4.146-9.259,9.259v16.159c0,5.114,4.146,9.259,9.259,9.259
	h189.272c5.114,0,9.259-4.146,9.259-9.259v-16.159C359.896,316.508,355.75,312.363,350.636,312.363z"/>
<path style="opacity:0.2;enable-background:new    ;" d="M171.956,338.042c-5.114,0-9.259-4.146-9.259-9.259v-16.159
	c0-0.089,0.011-0.174,0.013-0.262h-1.347c-5.114,0-9.259,4.146-9.259,9.259v16.159c0,5.114,4.146,9.259,9.259,9.259h189.272
	c5.025,0,9.107-4.007,9.247-8.998H171.956z"/>
<g style="opacity:0.2;">
	<rect x="107.858" y="283.259" width="32.517" height="16.011"/>
	<rect x="39.378" y="330.042" width="32.517" height="16.011"/>
	<rect x="94.932" y="366.14" width="32.518" height="16.011"/>
	<rect x="390.062" y="278.765" width="32.517" height="16.011"/>
	<rect x="263.098" y="274.335" width="32.518" height="16.011"/>
	<rect x="371.554" y="366.14" width="32.517" height="16.011"/>
	<rect x="441.371" y="331.643" width="32.517" height="16.011"/>
</g>
<path style="fill:#1E252B;" d="M489.254,173.729H334.855v-22.234c1.77,0.164,3.559,0.259,5.371,0.259h72.322
	c9.783,0,17.742-7.959,17.742-17.742s-7.959-17.741-17.742-17.741h-55.431c-1.217,0-2.207-0.991-2.207-2.207
	c0-1.217,0.991-2.206,2.207-2.206h55.431c9.783,0,17.742-7.959,17.742-17.742s-7.959-17.741-17.742-17.741h-55.431
	c-1.217,0-2.207-0.991-2.207-2.207c0-1.217,0.991-2.206,2.207-2.206h55.431c9.783,0,17.742-7.959,17.742-17.742
	s-7.959-17.741-17.742-17.741h-72.322c-23.634,0-43.981,14.304-52.866,34.704l-178.588-9.109c-7.123-0.358-13.883,2.14-19.051,7.049
	c-5.167,4.91-8.013,11.539-8.013,18.666v12.654c0,7.128,2.846,13.756,8.012,18.666c4.838,4.597,11.077,7.085,17.697,7.085
	c0.449,0,0.901-0.012,1.354-0.034l27.599-1.408v48.979H22.746C10.204,173.73,0,183.934,0,196.477v261.541
	c0,9.652,7.853,17.504,17.505,17.504h476.99c9.652,0,17.505-7.852,17.505-17.504V196.476
	C512,183.933,501.796,173.729,489.254,173.729z M340.226,52.486h72.322c0.954,0,1.731,0.777,1.731,1.73
	c0,0.955-0.777,1.731-1.731,1.731h-55.431c-10.045,0-18.218,8.172-18.218,18.217s8.173,18.218,18.218,18.218h55.431
	c0.954,0,1.731,0.777,1.731,1.73c0,0.955-0.777,1.731-1.731,1.731h-55.431c-10.045,0-18.218,8.172-18.218,18.217
	s8.173,18.218,18.218,18.218h55.431c0.954,0,1.731,0.777,1.731,1.73c0,0.955-0.777,1.731-1.731,1.731h-72.322
	c-22.954,0-41.629-18.675-41.629-41.629S317.272,52.486,340.226,52.486z M318.844,147.624v26.105H152.381v-49.795l134.978-6.886
	C293.405,130.929,304.758,141.975,318.844,147.624z M107.955,110.168c-2.69,0.133-5.251-0.81-7.206-2.667
	c-1.954-1.856-3.03-4.364-3.03-7.06V87.787c0-2.695,1.076-5.203,3.03-7.06c1.954-1.856,4.509-2.802,7.206-2.666l175.088,8.929
	c-0.289,2.336-0.456,4.71-0.456,7.124c0,2.413,0.167,4.787,0.456,7.124L107.955,110.168z M46.789,459.51
	c3.829-22.922,23.792-40.451,47.784-40.451c23.991,0,43.956,17.53,47.784,40.451H46.789z M319.245,459.51H192.755V355.045h126.489
	V459.51z M161.364,339.034c-0.692,0-1.254-0.563-1.254-1.254v-16.159c0-0.691,0.563-1.254,1.254-1.254h189.272
	c0.692,0,1.254,0.563,1.254,1.254v16.159c0,0.691-0.563,1.254-1.254,1.254H161.364z M369.641,459.51
	c3.829-22.922,23.792-40.451,47.784-40.451c23.991,0,43.956,17.53,47.784,40.451H369.641z M495.989,458.017
	c0,0.823-0.67,1.493-1.494,1.493h-13.116c-3.957-31.781-31.117-56.462-63.953-56.462s-59.997,24.681-63.954,56.462h-18.217V355.045
	h15.381c9.52,0,17.265-7.745,17.265-17.265v-16.159c0-9.52-7.745-17.265-17.265-17.265H161.364c-9.52,0-17.265,7.745-17.265,17.265
	v16.159c0,9.52,7.745,17.265,17.265,17.265h15.381V459.51h-18.218c-3.957-31.781-31.117-56.462-63.953-56.462
	s-59.996,24.681-63.953,56.462H17.505c-0.824,0-1.494-0.67-1.494-1.493V196.476c0-3.713,3.021-6.736,6.735-6.736h466.508
	c3.714,0,6.735,3.022,6.735,6.736V458.017z"/>
</svg>